<?xml version="1.0" standalone="no"?>
<!DOCTYPE svg PUBLIC "-//W3C//DTD SVG 20010904//EN"
 "http://www.w3.org/TR/2001/REC-SVG-20010904/DTD/svg10.dtd">
<svg version="1.0" xmlns="http://www.w3.org/2000/svg"
 width="260.000000pt" height="260.000000pt" viewBox="0 0 260.000000 260.000000"
 preserveAspectRatio="xMidYMid meet">
<metadata>
Created by potrace 1.11, written by Peter Selinger 2001-2013
</metadata>
<g transform="translate(0.000000,260.000000) scale(0.100000,-0.100000)"
fill="#000000" stroke="none">
<path d="M1125 2314 c-372 -66 -671 -333 -809 -724 -27 -75 -27 -75 -87 -103
-77 -36 -119 -91 -119 -154 0 -57 31 -116 75 -143 33 -20 40 -31 36 -54 -5
-25 -2 -297 4 -341 22 -182 43 -272 92 -395 3 -8 18 43 34 115 38 175 36 163
54 222 20 66 32 74 30 20 -2 -68 22 -209 50 -294 44 -132 115 -223 217 -278
54 -29 56 -26 34 47 -21 68 -42 325 -29 350 2 4 27 -10 55 -32 100 -75 304
-119 528 -113 63 1 126 4 140 7 141 22 241 51 334 97 33 16 61 29 63 29 2 0 1
-17 -3 -37 -4 -21 -8 -45 -9 -53 -8 -45 -30 -110 -51 -152 -13 -26 -24 -50
-24 -52 0 -12 70 21 115 55 75 56 143 134 218 253 l39 61 -6 -69 c-4 -38 -9
-79 -11 -90 -3 -12 -7 -33 -10 -49 -12 -63 -17 -84 -45 -170 -16 -50 -27 -93
-25 -95 10 -10 267 264 325 346 181 257 227 416 194 672 -39 296 -163 561
-361 770 -170 180 -384 297 -628 346 -110 22 -320 26 -420 8z"/>
</g>
</svg>
